<svg id="Layer_1" data-name="Layer 1" xmlns="http://www.w3.org/2000/svg" viewBox="0 0 600 600"><defs><style>.cls-1{fill:#fff;}.cls-2{fill:#e4e8dc;}.cls-3{fill:#ead57d;}.cls-4{fill:#d6c169;}.cls-5{fill:#7c3e00;}.cls-6{fill:#ef9c41;}</style></defs><title>Artboard 1</title><path class="cls-1" d="M289.65,14.79A9,9,0,0,0,277.5,18l-4.57,7.73a8.64,8.64,0,0,0,3.2,11.94l6.42,3.66c-12.67,41.61-5.33,114.27,4.15,157.3,1.78,8.12.21,14.66-4.52,19.3l-47,79.34a25.13,25.13,0,0,1-10.4,5.81c-43,13.2-112.86,45.66-143.13,77.27l-7.77-4.43c-4.24-2.42-8-.42-10.47,3.76L59,387.19c-2.48,4.19-2.82,9.11,1.42,11.53L171.7,462.26l13.52-22.84L260.75,311.8l-.08,0,47-79.34.08,0,77.47-130.9.39-.66.35-.59,13.52-22.84Z"/><path class="cls-2" d="M296.42,502.9l-7.77-4.44c13-41.48,6.5-116.24-3-159.52a23.88,23.88,0,0,1,.45-12.67l47-79.34c2.17-6.53,7.51-11.55,15.39-14,42.24-13,108.66-41.64,139.68-72.63l.17.1,1-1.07,7.89,4.51a9,9,0,0,0,12.15-3.18L514,153A8.64,8.64,0,0,0,510.76,141L400.2,77.91l-.77-.44-13.52,22.84-.35.59-.39.66L307.7,232.46l-.08,0-47,79.34.08,0L185.22,439.41,171.7,462.26l.77.44,110.43,63c4.23,2.42,10.07.63,12.55-3.56l4.47-7.56C302.39,510.45,300.65,505.32,296.42,502.9Z"/><path class="cls-3" d="M232.1,364.38a6.38,6.38,0,0,0-1.49-1.4c-8.74-5-79.67,6.67-122.79,31.76l79.46,45.36Z"/><path class="cls-3" d="M391.25,188l-42.91-24.5-1-.57-41.81-23.87c-.25,25.74,13.3,60.53,16.59,65.45l.28-.47c-.08.13,1.31.41,1.55.55l-1.4-.8-.28.47C327,206.88,367.47,201.89,391.25,188Z"/><path class="cls-4" d="M185.48,439.08,263,483.31c.47-49.44-24.77-116-32.34-120.32l-.07,0-45.05,76.13Z"/><path class="cls-5" d="M287.12,533.28a14.92,14.92,0,0,1-7.42-1.94l-222.49-127a12.47,12.47,0,0,1-6.05-7.75c-1-3.93-.23-8.42,2.28-12.67l4.47-7.56c4.51-7.62,12.23-10.06,19.21-6.07l3.5,2c33.56-32.16,102.47-63.17,142.32-75.4a19.78,19.78,0,0,0,7.22-3.73l46.91-79.26.6-.59c3.13-3.08,4-7.43,2.74-13.32-10.27-46.65-16-114-5.41-155.57l-2.05-1.17a15.09,15.09,0,0,1-5.55-20.82L272,14.68a15.46,15.46,0,0,1,20.89-5.49L514,135.43a15.08,15.08,0,0,1,5.54,20.82L514.93,164A15.46,15.46,0,0,1,494,169.46l-3.58-2-1,1.06-.3-.17c-31.54,29-93.2,56.8-138.77,70.82-5.76,1.77-9.62,5.17-11.16,9.84l-.22.66L292,328.91a17.78,17.78,0,0,0-.09,8.67c8.26,37.66,16.33,112.2,4.3,157.8l3.37,1.93a15.68,15.68,0,0,1,7.4,9.49,14.42,14.42,0,0,1-1.55,11.12L301,525.47A16.2,16.2,0,0,1,287.12,533.28ZM63.61,393.13l222.49,127a3.2,3.2,0,0,0,3.8-1.24l4.47-7.56a1.54,1.54,0,0,0,.18-1.25,2.72,2.72,0,0,0-1.33-1.6l-12.28-7,1.55-4.95c11.89-38,7.25-108.82-3.15-156.21a30.15,30.15,0,0,1,.63-16.08l.22-.66,47-79.38c3-8.32,9.86-14.48,19.37-17.4,45.88-14.11,108.33-42.36,137-71L487,152.3l.09.05,1-1.09,12.26,7a2.55,2.55,0,0,0,3.4-.86l4.57-7.73a2.13,2.13,0,0,0,.24-1.67,2.26,2.26,0,0,0-1.09-1.39h0L286.45,20.39a2.54,2.54,0,0,0-3.4.86L278.48,29a2.14,2.14,0,0,0-.24,1.67A2.27,2.27,0,0,0,279.33,32l10.89,6.22-1.5,4.92C276.09,84.63,284.35,158,293,197.2c2.72,12.37-1.42,20.15-5.66,24.63l-47,79.4-.6.59a31.5,31.5,0,0,1-13,7.37c-40,12.27-110,43.83-140.37,75.57l-3.48,3.63-12.14-6.93a2.19,2.19,0,0,0-.37-.17A4.87,4.87,0,0,0,69,382.91l-4.47,7.56A5.6,5.6,0,0,0,63.61,393.13Zm-.13-.08Z"/><path class="cls-6" d="M237.44,193c1.44,4.5,2.29,8.76,4.14,12.54A131.87,131.87,0,0,0,251.21,222c1.11,1.63,3.89,2.53,6.05,2.93,3.83.71,7.82.6,11.67,1.21a7,7,0,0,1,4.31,2.36q7.64,10.73,14.78,21.82a4.77,4.77,0,0,1,.26,4.12,39.1,39.1,0,0,1-12.12,13.3,4.23,4.23,0,0,1-5.2.06,145.26,145.26,0,0,1-29.27-24.21c-7.84-8.26-15.15-17-22.77-25.49-1.52-1.68-1.52-3.24-.72-5.18C221.95,203.87,228.8,197.9,237.44,193Z"/><path class="cls-5" d="M273.56,275.09a11.3,11.3,0,0,1-6-1.82A150.76,150.76,0,0,1,237,248c-5-5.29-9.86-10.83-14.55-16.18-2.76-3.16-5.53-6.31-8.33-9.43-2.14-2.37-4.19-6.37-1.88-12,3.89-9.38,10.87-16.71,22-23.06l6.91-3.95,2.43,7.58c.48,1.49.9,3,1.3,4.4a44.39,44.39,0,0,0,2.49,7.27,125.39,125.39,0,0,0,8.87,15.25,8.9,8.9,0,0,0,2.19.66,49.78,49.78,0,0,0,5.47.57c1.95.14,4,.28,6,.61a13.38,13.38,0,0,1,8.55,5c4.86,6.83,9.75,14,14.94,22.06a11.1,11.1,0,0,1,.44,10.83,45.68,45.68,0,0,1-14.12,15.44A11.14,11.14,0,0,1,273.56,275.09Zm-49.08-60.47c2.59,2.89,5.14,5.8,7.68,8.71,4.6,5.26,9.36,10.7,14.2,15.8a139,139,0,0,0,27.09,22.61,32.14,32.14,0,0,0,8.39-9.11c-4.71-7.24-9.16-13.8-13.59-20a1.72,1.72,0,0,0-.35-.12c-1.53-.24-3.17-.36-4.92-.48a60.39,60.39,0,0,1-6.92-.76c-3.31-.61-7.77-2.09-10.2-5.63a138.48,138.48,0,0,1-10.1-17.29,39.18,39.18,0,0,1-2.05-5.19A30.07,30.07,0,0,0,224.48,214.62Zm58.12,39.17v0Z"/><path class="cls-6" d="M265.34,274.93c4,3.38,3,6.91.5,10.48-2.19,3.09-4.48,6.1-6.77,9.12-1.66,2.18-3.55,2.51-6.21,1.41-18-7.46-33.63-18.48-48.08-31.35-.8-.71-1.63-1.39-2.45-2.07-5.39-4.44-5.52-4.86-2.72-11.35,3.1-7.18,8.26-12.68,14.42-17.31,2.63-2,4.87-1.9,7.27.85,11.27,12.94,24.23,24,37.81,34.47C261.36,270.89,263.28,273,265.34,274.93Z"/><path class="cls-5" d="M255.5,303a13.32,13.32,0,0,1-5.1-1.09c-16.89-7-33.21-17.63-49.9-32.49-.68-.61-1.38-1.18-2.09-1.76l-.17-.14c-7.62-6.27-8.47-9.8-4.54-18.88,3.24-7.5,8.63-14,16.46-19.9,5.48-4.12,11.46-3.46,16,1.77,9.58,11,21,21.37,36.88,33.59a52.63,52.63,0,0,1,4.88,4.41c.57.56,1.14,1.12,1.72,1.66,2.87,2.5,8.42,9.15,1.45,19-2.2,3.11-4.51,6.16-6.75,9.1l-.14.19A10.72,10.72,0,0,1,255.5,303Zm-50.91-47c.6.54,1.38,1.17,1.84,1.55l.17.14c.83.68,1.66,1.37,2.47,2.09,15.37,13.68,30.28,23.47,45.58,29.92,2-2.63,4-5.33,5.93-8a8.17,8.17,0,0,0,.91-1.54,4.37,4.37,0,0,0-.33-.31l-.21-.19c-.69-.65-1.37-1.31-2-2a42.4,42.4,0,0,0-3.7-3.37C239.14,262,227,250.93,217.08,239.65c-5.61,4.38-9.29,8.87-11.54,14.07C205.31,254.25,204.9,255.21,204.59,256Z"/><path class="cls-6" d="M202.12,275.38c8.79,6.09,16.81,12.26,25.43,17.42,7.49,4.48,15.66,7.82,23.53,11.67a24.25,24.25,0,0,1,4.37,2.31c4.6,3.59,5,4.6,2.68,9.94a104.12,104.12,0,0,1-5.69,10.61c-1.32,2.29-3.28,2.54-5.82,1.88-16.4-4.27-31.24-11.85-45.34-21.06-2-1.3-4-2.64-6-3.88-6-3.7-5.92-2.42-4-10.09C193.1,286.85,196.28,280.13,202.12,275.38Z"/><path class="cls-5" d="M248.76,336a14.88,14.88,0,0,1-3.76-.51c-15.35-4-30.8-11.16-47.24-21.9l-1.8-1.19c-1.34-.88-2.67-1.77-4-2.61-.69-.43-1.3-.78-1.83-1.09-7.17-4.21-7.14-7.76-5.36-14.87l.29-1.16c2.43-9.83,6.69-17.11,13-22.25l3.76-3,4,2.75c2.72,1.89,5.37,3.78,8,5.65,5.83,4.17,11.33,8.1,17.09,11.54a165.67,165.67,0,0,0,15.52,7.85c2.52,1.17,5,2.34,7.54,3.56l1,.47a21.17,21.17,0,0,1,4.48,2.54c7,5.46,8.07,9.56,4.64,17.56a88.73,88.73,0,0,1-5,9.58l-1,1.7A10.47,10.47,0,0,1,248.76,336ZM197,297.78l1.66,1c1.48.91,2.93,1.87,4.39,2.83l1.74,1.14c15.23,9.95,28.85,16.33,42.8,20l.25-.43a77.92,77.92,0,0,0,4.34-8.19c.24-.55.41-1,.53-1.3-.3-.25-.71-.59-1.26-1a12.33,12.33,0,0,0-1.87-1c-.46-.21-.92-.42-1.36-.64-2.41-1.18-4.85-2.31-7.29-3.44a177.85,177.85,0,0,1-16.72-8.49c-6.2-3.71-11.91-7.8-18-12.12l-3.4-2.42a31.84,31.84,0,0,0-5.34,11.93l-.3,1.2Z"/><path class="cls-6" d="M288.28,179c-7.46,1.71-14.83,3.41-22.21,5.08-5,1.13-10,2.16-14.94,3.32a4.61,4.61,0,0,1-5.47-2.08,84.48,84.48,0,0,0-6.59-8.4c-1.63-1.83-1.57-3.44-.56-5.45,5.1-10.15,13.7-16.12,24-20.07a3.14,3.14,0,0,1,2.76.73c7.61,8.47,15.11,17,22.62,25.59C288.06,177.93,288.07,178.33,288.28,179Z"/><path class="cls-5" d="M249.56,194a10.89,10.89,0,0,1-9.21-5.06,78.14,78.14,0,0,0-6.09-7.76c-2.3-2.57-4.42-6.85-1.51-12.64,5.3-10.55,14.27-18.14,27.41-23.19A9.51,9.51,0,0,1,270,147.8c7.06,7.87,14.14,15.93,21,23.73l1.68,1.91a7.6,7.6,0,0,1,1.67,3.39l0,.19,2.09,6.66-13.35,3.08c-5.24,1.2-10.46,2.4-15.67,3.58-2.13.48-4.27.95-6.4,1.41-2.84.62-5.67,1.24-8.5,1.9A13.35,13.35,0,0,1,249.56,194Zm-4.87-20.49a91.82,91.82,0,0,1,5.77,7.39c2.62-.6,5.25-1.18,7.88-1.75,2.1-.46,4.21-.92,6.31-1.39L276.89,175c-4.83-5.49-9.74-11.06-14.64-16.54C253.88,162.09,248.24,166.95,244.69,173.53Z"/><path class="cls-6" d="M455.66,583.67a4.37,4.37,0,0,0,7.59-.53c10.91-23.09,47.25-91.55,57.18-107.77,1.14-1.87.94-2.85-.3-4.3-4.87-5.69-9.66-11.46-14.49-17.18Q454.3,393.12,402.92,332.4A7.3,7.3,0,0,1,401,326.3a278.4,278.4,0,0,0-2.72-82,13,13,0,0,0-2.07-5.17c-16.27-22.72-32.66-45.37-48.94-68.08-1.31-1.82-2.45-2.24-4.68-1.67q-42.47,10.83-85,21.42l-12.19,3c2.25,4.94,4.62,9.34,6.29,14,2,5.48,5.93,7.3,11.24,7.39,1.31,0,2.62.3,3.91.23,12.2-.71,24.42-1.3,36.6-2.31,6.12-.51,12.17-1.83,18.49-2.82.33,1.22.65,2.22.85,3.24,1.55,8.1,5.44,14.65,12.73,18.83,2.36,1.35,1.15,2.61.28,4-9.85,16.3-13.11,34.07-11.8,52.86.25,3.6.73,7.18,1.15,11.21-3.19-3.86-5.76-9.17-7.65-15.64L289,347.95c-1.08,4.31,1.86,23.53,3.19,28.67h0c12.37,5.27,24.13,6.57,38.24,3.66,4-.83,8-1.78,12-2.68l.46,1.15-16.24,10Z"/><path class="cls-5" d="M459.31,592.08a10.84,10.84,0,0,1-9-4.85l-131.67-199a66.14,66.14,0,0,1-28.95-5.67l-1.59-.68-1.81-2.41-.32-1.23c-1-3.7-4.87-25.27-3.21-31.87l.14-.56,35.26-78.09a88.37,88.37,0,0,1,10.65-32.12,32.05,32.05,0,0,1-11.68-18c-4.26.75-8.66,1.52-13.14,1.89-9.4.78-18.94,1.32-28.16,1.83l-8.59.49a20.33,20.33,0,0,1-3.28-.13c-.37,0-.75-.08-1.12-.09-10.81-.18-15.32-6.43-17.2-11.65-1-2.89-2.44-5.8-3.92-8.88-.72-1.5-1.45-3-2.17-4.61l-3.22-7.06L248,186.5l8-2,15.85-4C294.53,174.84,318,169,341,163.09c4.78-1.22,8.66.18,11.51,4.16q11.66,16.27,23.37,32.5,12.8,17.78,25.57,35.58a19.49,19.49,0,0,1,3.17,7.79,286.3,286.3,0,0,1,2.78,83.93c-.06.53-.07.56.44,1.17q46.06,54.39,92,108.85l10.69,12.65,5.38,6.39c3,3.59,6,7.19,9.09,10.75,3.93,4.59,2.66,9,.9,11.86-9.91,16.18-46,84.29-56.85,107.16a10.81,10.81,0,0,1-9,6.15ZM335.72,390.73,459,577.06c12.09-24.92,44.11-85.23,54.89-103.36-2.66-3.13-5.25-6.21-7.84-9.29L500.71,458,490,445.4Q444,391,398,336.56a13.76,13.76,0,0,1-3.41-11,273.42,273.42,0,0,0-2.67-80.15,6.71,6.71,0,0,0-1-2.54q-12.75-17.8-25.55-35.55-11.29-15.68-22.56-31.37C320.23,181.68,297.25,187.45,275,193l-15.85,4-4.56,1.14c1.13,2.41,2.24,4.88,3.16,7.44.69,1.9,1.39,3.07,5.29,3.13.73,0,1.46.08,2.19.15a10.41,10.41,0,0,0,1.24.09l8.63-.49c9.14-.51,18.58-1,27.81-1.81,3.91-.33,7.85-1,12-1.75,2-.35,4-.7,6-1l5.74-.9,1.49,5.61c.1.37.2.71.29,1,.23.82.48,1.68.66,2.64,1.32,6.86,4.37,11.45,9.6,14.45a8.66,8.66,0,0,1,4.4,5.47,8.91,8.91,0,0,1-1.59,7.17l-.21.33C332.68,254,329.12,270,330.43,288.78c.16,2.3.43,4.65.71,7.15.14,1.24.29,2.52.42,3.85L333.78,321l-13.59-16.45a36.73,36.73,0,0,1-2.78-3.86l-22.2,49.18c-.3,3.31,1.27,15.34,2.55,22,10.3,3.83,19.87,4.44,31.37,2.07,2.68-.55,5.36-1.17,8-1.78l3.88-.88,5.35-1.2,4.53,11.28Z"/></svg>